<?xml version="1.0" encoding="UTF-8"?>
<svg id="LP-desktop_kopia_Obraz" data-name="LP-desktop kopia Obraz" xmlns="http://www.w3.org/2000/svg" viewBox="0 0 32.85 14.48">
  <defs>
    <style>
      .cls-1 {
        fill: #b7c0d2;
        stroke-width: 0px;
      }
    </style>
  </defs>
  <path class="cls-1" d="M3.49,7.89c5.03-2.8,10.71-3.87,16.2-1.79,3.45,1.31,6.48,3.57,8.93,6.31.51.57,1.01,1.16,1.44,1.79.52.76,3.33-.17,2.7-1.11C28.54,6.83,20.72,2.94,13.23,3.43c-4.08.27-7.96,1.68-11.51,3.66-.46.25-.79.73-.27,1.08s1.57-.02,2.05-.28h0Z"/>
  <path class="cls-1" d="M9.83,10.25c-2.34-.98-4.68-1.96-7.01-2.94l.06.24c1.61-2.11,3.22-4.22,4.84-6.32.23-.3.47-.61.7-.91C8.74-.11,7.35.01,7.26.03c-.58.1-1.32.3-1.7.79C3.95,2.93,2.33,5.04.72,7.14c-.23.3-.47.61-.7.91-.05.1-.03.18.06.24,2.34.98,4.68,1.96,7.01,2.94.57.24,1.31.04,1.87-.16.11-.04,1.32-.63.86-.82h0Z"/>
</svg>