<?xml version="1.0" encoding="UTF-8"?>
<svg id="LP-desktop_kopia_Obraz" data-name="LP-desktop kopia Obraz" xmlns="http://www.w3.org/2000/svg" viewBox="0 0 32.89 14.38">
  <defs>
    <style>
      .cls-1 {
        fill: #b7c0d2;
        stroke-width: 0px;
      }
    </style>
  </defs>
  <path class="cls-1" d="M31.43,6.86c-5.71-3.18-12.31-4.43-18.63-2.41-4.23,1.35-7.96,3.88-10.96,7.13-.61.67-1.22,1.36-1.73,2.11-.71,1.06,2.18.79,2.69.02,3.48-5.16,9.76-8.9,16.03-8.69,3.65.12,7.12,1.44,10.28,3.2.79.44,3.46-.73,2.32-1.37h0Z"/>
  <path class="cls-1" d="M25.24,10.99c2.34-.98,4.68-1.96,7.01-2.94.08-.03.77-.38.61-.58-1.61-2.11-3.22-4.22-4.84-6.32-.23-.3-.47-.61-.7-.91-.31-.41-1.16-.17-1.57-.06-.13.04-1.57.52-1.33.84,1.61,2.11,3.22,4.22,4.84,6.32.23.3.47.61.7.91l.61-.58c-2.34.98-4.68,1.96-7.01,2.94-.29.12-.95.56-.35.75s1.48-.14,2.03-.37h0Z"/>
</svg>