<?xml version="1.0" encoding="UTF-8"?>
<svg id="LP-desktop_kopia_Obraz" data-name="LP-desktop kopia Obraz" xmlns="http://www.w3.org/2000/svg" viewBox="0 0 130.35 72.8">
  <defs>
    <style>
      .cls-1 {
        fill: #b7c0d2;
        stroke-width: 0px;
      }
    </style>
  </defs>
  <path class="cls-1" d="M124.36,25.35c-13.79-5.42-28.62-8.72-43.5-8.08-12.4.54-24.65,3.46-35.8,8.94-9.15,4.5-17.55,10.38-24.86,17.49-5.37,5.22-10.25,10.96-14.45,17.15-1.28,1.89-2.51,3.82-3.65,5.8-.62,1.08-1.59,2.4-1.93,3.61-.01.04-.04.09-.07.13-.4.83.55,1.67,1.15,1.97,1.07.52,2.68.51,3.8.34,2.55-.39,5.42-1.38,6.61-3.83.17-.35-.61,1.17-.15.3.25-.47.5-.94.76-1.41.95-1.71,1.97-3.37,3.03-5.01,1.58-2.43,3.26-4.79,5.03-7.09,1.07-1.39,2.18-2.75,3.32-4.08.61-.71,1.23-1.42,1.86-2.11.31-.35.63-.69.95-1.03.15-.16.3-.32.45-.48.43-.47-.37.39-.36.38.11-.11.22-.23.33-.35,2.94-3.05,6.04-5.93,9.34-8.58.88-.71,1.77-1.4,2.67-2.07.41-.31.83-.61,1.25-.92.12-.09.24-.17.36-.26.61-.44-.52.36-.51.36.28-.19.55-.39.83-.58,1.93-1.32,3.92-2.56,5.95-3.72,1.1-.62,2.22-1.22,3.34-1.79,1.02-.52-.65.31-.34.17.25-.12.51-.25.76-.37.58-.28,1.17-.55,1.76-.82,1.16-.52,2.34-1.01,3.52-1.48.58-.23,1.17-.45,1.76-.66.32-.11.63-.23.95-.34,1.28-.45-1.19.39-.31.1,2.56-.83,5.15-1.55,7.78-2.13.15-.03.93-.3,1.05-.22.05.04-1.45.28-.91.18.18-.03.35-.07.53-.1.71-.13,1.43-.26,2.14-.37,1.41-.22,2.83-.41,4.26-.55.7-.07,1.41-.13,2.11-.19.14-.01.28-.02.43-.03.89-.07-.57.04-.6.04.43-.01.86-.05,1.3-.07,1.52-.07,3.04-.09,4.56-.07s3.14.08,4.7.18c.36.02.72.05,1.08.08.18.01.45.07.62.05-.09.01-1.21-.12-.35-.03s1.69.17,2.53.28c3.42.43,6.81,1.04,10.17,1.82,1.72.4,3.43.84,5.13,1.33.18.05,1.58.47.69.2.41.13.82.25,1.23.38.95.3,1.9.61,2.84.93,1.89.64,3.76,1.34,5.61,2.07,2.53.99,5.95.29,8.19-1.14,1.35-.86,3.71-3.29,1.07-4.33h0Z"/>
  <path class="cls-1" d="M102.13,44.86c7.85-4.66,15.69-9.33,23.54-13.99,1.12-.66,2.24-1.33,3.35-1.99.73-.43,1.88-1.3,1.02-2.15-7.79-7.68-15.58-15.37-23.37-23.05-1.1-1.09-2.2-2.17-3.31-3.26-.56-.55-2.35-.41-2.95-.36-1.49.11-3.12.48-4.51,1.02-.9.34-4.92,1.86-3.45,3.3,7.79,7.68,15.58,15.37,23.37,23.05,1.1,1.09,2.2,2.17,3.31,3.26l1.02-2.15c-7.85,4.66-15.69,9.33-23.54,13.99-1.12.66-2.24,1.33-3.35,1.99-.41.24-1.54,1.03-1.36,1.73s1.56.8,2.04.82c2.78.08,5.81-.78,8.2-2.2h0Z"/>
</svg>