<?xml version="1.0" encoding="UTF-8"?>
<svg id="LP-desktop_kopia_Obraz" data-name="LP-desktop kopia Obraz" xmlns="http://www.w3.org/2000/svg" viewBox="0 0 130.39 72.81">
  <defs>
    <style>
      .cls-1 {
        fill: #b7c0d2;
        stroke-width: 0px;
      }
    </style>
  </defs>
  <path class="cls-1" d="M12.9,30.3c1.86-.73,3.73-1.41,5.61-2.07.76-.26-1.21.4-.45.15.24-.08.47-.16.71-.23.41-.13.82-.26,1.24-.39.93-.29,1.86-.57,2.8-.83,1.76-.5,3.52-.96,5.3-1.37.83-.19,1.68-.35,2.51-.55-1.93.46-.35.07.09-.01s.87-.16,1.31-.24c1.66-.29,3.32-.53,5-.73.79-.09,1.57-.18,2.36-.25.42-.04.83-.07,1.25-.11.21-.02.41-.03.62-.05.76-.06-.36.03-.53.03,3.09-.09,6.15-.21,9.23-.06.72.03,1.43.08,2.15.13.17.01,1.55.13.63.05s.51.06.75.08c1.37.15,2.74.34,4.1.56,2.71.44,5.4,1.03,8.05,1.76.33.09.66.19,1,.28.69.2-.91-.28.18.05.65.2,1.3.41,1.94.63,1.19.4,2.37.83,3.54,1.29,2.38.94,4.72,1.99,7,3.15,2.16,1.1,4.27,2.3,6.33,3.59.49.3.96.62,1.45.93-.55-.35-.28-.19.09.06.28.19.56.38.84.57.95.65,1.88,1.32,2.81,2.01,3.48,2.6,6.77,5.45,9.86,8.49,4.95,4.88,9.41,10.27,13.31,16.03.69,1.03,1.37,2.06,2.02,3.11.28.44.55.9.82,1.34.23.37-.46-.79-.17-.28.05.09.11.18.16.27.11.19.23.39.34.58.52.9,1,1.82,1.49,2.73.02.04.04.08.06.12,1.07,2.2,4.6,1.76,6.53,1.2,1.35-.39,2.84-.92,3.88-1.9.55-.52,1.59-1.54,1.18-2.4-1.3-2.67-2.9-5.23-4.52-7.71-3.71-5.71-7.99-11.06-12.73-15.94-6.51-6.71-13.98-12.52-22.18-17.04-9.94-5.47-20.99-8.77-32.28-9.79-15.1-1.36-30.12,1.25-44.4,6.12-1.95.66-3.88,1.38-5.79,2.13-1.39.54-4.87,2.62-3.14,4.47s5.75.76,7.64.01h0Z"/>
  <path class="cls-1" d="M38.15,42.68c-7.85-4.66-15.69-9.33-23.54-13.99-1.12-.66-2.24-1.33-3.35-1.99l-.21,1.54c7.79-7.68,15.58-15.37,23.37-23.05,1.1-1.09,2.2-2.17,3.31-3.26C39.56.12,36.09-.08,34.98.02c-2.47.23-5.9.93-7.76,2.77-7.79,7.68-15.58,15.37-23.37,23.05-1.1,1.09-2.2,2.17-3.31,3.26-.37.37-.91,1.13-.21,1.54,7.85,4.66,15.69,9.33,23.54,13.99,1.12.66,2.24,1.33,3.35,1.99.82.49,2.07.43,2.95.36,1.49-.11,3.12-.48,4.51-1.02.57-.22,5.22-2.25,3.45-3.3h0Z"/>
</svg>